<svg xmlns="http://www.w3.org/2000/svg" width="48" height="48" viewBox="0 0 48 48" fill="none">
  <rect width="48" height="48" rx="12" fill="url(#grad)" />
  <path d="M16 14C16 12.8954 16.8954 12 18 12H30C31.1046 12 32 12.8954 32 14V16H16V14Z" fill="white" opacity="0.9"/>
  <path d="M14 18H34V20C34 21.1046 33.1046 22 32 22H16C14.8954 22 14 21.1046 14 20V18Z" fill="white" opacity="0.7"/>
  <path d="M15 24H33L31 34C30.6 36 29 37 27 37H21C19 37 17.4 36 17 34L15 24Z" fill="white" opacity="0.5"/>
  <path d="M20 37L21.5 28H26.5L28 37H20Z" fill="white" opacity="0.8"/>
  <defs>
    <linearGradient id="grad" x1="0" y1="0" x2="48" y2="48" gradientUnits="userSpaceOnUse">
      <stop stop-color="#6366f1"/>
      <stop offset="1" stop-color="#8b5cf6"/>
    </linearGradient>
  </defs>
</svg>
